<svg width="24" height="24" viewBox="0 0 24 24" fill="none" xmlns="http://www.w3.org/2000/svg">
<path fill-rule="evenodd" clip-rule="evenodd" d="M23.1412 12.1429C23.1412 5.98857 18.1526 1 11.9983 1C5.84404 1 0.855469 5.98857 0.855469 12.1429C0.855469 18.2971 5.84404 23.2857 11.9983 23.2857C18.1526 23.2857 23.1412 18.2971 23.1412 12.1429ZM14 7C14 8.10457 13.1046 9 12 9C10.8954 9 10 8.10457 10 7C10 5.89543 10.8954 5 12 5C13.1046 5 14 5.89543 14 7ZM10.5 11.5C10.5 10.6716 11.1716 10 12 10C12.8284 10 13.5 10.6716 13.5 11.5V18.5C13.5 19.3284 12.8284 20 12 20C11.1716 20 10.5 19.3284 10.5 18.5V11.5Z" fill="#FAAD14"/>
</svg>
