<svg width="166" height="181" viewBox="0 0 166 181" fill="none" xmlns="http://www.w3.org/2000/svg">
<circle cx="59" cy="59" r="40" stroke="white" stroke-opacity="0.8" stroke-width="4"/>
<circle cx="59" cy="59" r="57" stroke="white" stroke-opacity="0.8" stroke-width="4"/>
<g filter="url(#filter0_d_15_13)">
<path d="M80.392 153.464H82.864V155.504H91.936V157.832H82.864V160.184H90.472V168.488H73.912V160.184H80.392V153.464ZM87.976 166.184V162.512H76.408V166.184H87.976ZM73.864 169.184L75.952 170.192C75.088 172.232 74.104 174.008 72.952 175.496L70.888 173.984C72.04 172.64 73.024 171.056 73.864 169.184ZM79.792 169.976C80.272 171.512 80.68 173.144 81.064 174.92L78.544 175.52C78.256 173.6 77.872 171.92 77.44 170.456L79.792 169.976ZM84.76 169.64C85.432 171.248 86.032 173 86.56 174.872L84.064 175.472C83.632 173.456 83.08 171.656 82.408 170.12L84.76 169.64ZM89.536 169.064C91.024 171.032 92.176 172.736 92.992 174.176L90.88 175.616C90.04 174.032 88.912 172.28 87.496 170.36L89.536 169.064ZM97.144 156.584H104.704V153.464H107.296V156.584H114.736V158.96H107.296V162.224H116.704V164.624H107.296V172.304H112.192V166.256H114.568V175.544H112.192V174.608H97.456V166.256H99.832V172.304H104.704V164.624H95.32V162.224H104.704V158.96H97.144V156.584ZM120.52 154.496H139.528V156.92H135.76V162.44H140.728V164.864H135.76V175.16H133.24V164.864H127.024C126.784 167.216 126.304 169.208 125.608 170.816C124.672 172.832 123.136 174.392 121 175.472L119.632 173.336C121.576 172.208 122.872 170.792 123.544 169.112C123.976 167.912 124.288 166.496 124.48 164.864H119.296V162.44H124.648C124.648 162.296 124.672 162.176 124.672 162.032V156.92H120.52V154.496ZM127.216 156.92V162.032C127.216 162.176 127.192 162.296 127.192 162.44H133.24V156.92H127.216ZM163.192 165.896V175.592H160.744V174.512H151.192V175.592H148.744V165.896H163.192ZM151.192 172.16H160.744V168.248H151.192V172.16ZM160.984 158H147.832V160.928H160.984V158ZM147.832 163.232V164.24C147.808 168.632 146.752 172.424 144.688 175.616L142.72 173.84C144.448 171.344 145.336 168.152 145.36 164.24V155.648H153.208C152.896 154.856 152.56 154.112 152.224 153.44L154.84 153.008C155.152 153.8 155.464 154.688 155.776 155.648H163.48V163.232H147.832Z" fill="white"/>
</g>
<g filter="url(#filter1_d_15_13)">
<path d="M116.326 55.8335L116.087 55.9953C114.326 57.1914 113.226 58.6761 112.422 60.4784C108.777 57.7726 103.93 57.332 99.9383 60.0426C98.177 61.2388 96.8403 62.8841 96.0367 64.6862C92.3914 61.9806 87.5426 61.5409 83.551 64.2516C81.9943 65.3088 80.814 66.6791 80.0014 68.2301L73.7569 59.1395C70.3557 54.188 63.832 52.732 58.816 56.1384C53.7999 59.5448 52.491 66.32 55.8922 71.2715L79.8002 106.077L70.5295 104.36C64.5777 103.268 58.6425 108.029 57.6852 113.083C56.7279 118.136 58.8989 125.525 66.1769 126.888L108.751 134.717C109.629 134.878 110.5 134.919 111.355 134.872C118.557 135.482 125.381 134.104 136.587 126.495C162.185 109.111 155.123 93.7689 143.488 76.83L131.171 58.8993C127.77 53.948 121.342 52.4271 116.326 55.8335ZM138.707 80.0762C148.553 94.4091 156.465 106.075 133.345 121.776C123.551 128.427 116.179 130.249 108.704 128.877L68.3993 121.464C64.8238 120.794 63.5028 117.731 64.0541 114.82C64.6054 111.91 67.7563 109.683 70.5756 110.2C70.5756 110.2 77.6487 111.503 83.7426 112.626C88.3543 113.476 92.4052 114.222 92.4052 114.222L61.3205 68.969C59.7095 66.6236 60.3296 63.4143 62.7056 61.8008C65.0815 60.1873 68.014 60.9841 69.625 63.3294L89.3965 92.1126L89.4447 92.0798C89.5181 92.2536 89.6096 92.4227 89.7207 92.5845C90.6156 93.8874 92.4114 94.2171 93.7314 93.3207C95.0512 92.4244 95.3957 90.6414 94.5006 89.3384C94.3896 89.1766 94.2645 89.0303 94.1283 88.8992L94.1765 88.8664L86.0734 77.07C84.4623 74.7246 84.8752 71.6559 87.2512 70.0423C87.2512 70.0423 91.4219 67.1269 94.378 71.4303L105.074 87.0014L105.122 86.9686C105.196 87.1425 105.287 87.3117 105.398 87.4733C106.293 88.7763 108.089 89.1059 109.409 88.2096C110.729 87.3132 111.073 85.5303 110.178 84.2272C110.067 84.0655 109.942 83.9192 109.806 83.788L109.854 83.7553L102.399 72.9027C100.788 70.5572 101.174 67.5071 103.55 65.8935C103.55 65.8935 108.029 63.2415 110.764 67.2223L120.163 80.906L120.211 80.8732C120.285 81.0469 120.376 81.2163 120.487 81.3779C121.382 82.6809 123.178 83.0105 124.498 82.1141C125.818 81.2177 126.103 79.4755 125.208 78.1724C125.097 78.0108 124.972 77.8637 124.838 77.7314L124.883 77.7005L118.466 68.3579C116.855 66.0125 117.321 62.9074 119.697 61.294C119.697 61.294 123.747 58.2977 126.779 62.712C126.779 62.712 136.086 76.26 138.707 80.0762Z" fill="white"/>
</g>
<defs>
<filter id="filter0_d_15_13" x="68.8879" y="153.008" width="96.592" height="26.608" filterUnits="userSpaceOnUse" color-interpolation-filters="sRGB">
<feFlood flood-opacity="0" result="BackgroundImageFix"/>
<feColorMatrix in="SourceAlpha" type="matrix" values="0 0 0 0 0 0 0 0 0 0 0 0 0 0 0 0 0 0 127 0" result="hardAlpha"/>
<feOffset dy="2"/>
<feGaussianBlur stdDeviation="1"/>
<feComposite in2="hardAlpha" operator="out"/>
<feColorMatrix type="matrix" values="0 0 0 0 0 0 0 0 0 0 0 0 0 0 0 0 0 0 0.25 0"/>
<feBlend mode="normal" in2="BackgroundImageFix" result="effect1_dropShadow_15_13"/>
<feBlend mode="normal" in="SourceGraphic" in2="effect1_dropShadow_15_13" result="shape"/>
</filter>
<filter id="filter1_d_15_13" x="44" y="52" width="120" height="101" filterUnits="userSpaceOnUse" color-interpolation-filters="sRGB">
<feFlood flood-opacity="0" result="BackgroundImageFix"/>
<feColorMatrix in="SourceAlpha" type="matrix" values="0 0 0 0 0 0 0 0 0 0 0 0 0 0 0 0 0 0 127 0" result="hardAlpha"/>
<feOffset dy="8"/>
<feGaussianBlur stdDeviation="5"/>
<feComposite in2="hardAlpha" operator="out"/>
<feColorMatrix type="matrix" values="0 0 0 0 0 0 0 0 0 0 0 0 0 0 0 0 0 0 0.25 0"/>
<feBlend mode="normal" in2="BackgroundImageFix" result="effect1_dropShadow_15_13"/>
<feBlend mode="normal" in="SourceGraphic" in2="effect1_dropShadow_15_13" result="shape"/>
</filter>
</defs>
</svg>
