<svg width="24" height="24" viewBox="0 0 24 24" fill="none" xmlns="http://www.w3.org/2000/svg">
<g clip-path="url(#clip0_17657_185966)">
<path d="M11.9983 0.856934C18.1526 0.856934 23.1412 5.8455 23.1412 11.9998C23.1412 18.1541 18.1526 23.1427 11.9983 23.1427C5.84404 23.1427 0.855469 18.1541 0.855469 11.9998C0.855469 5.8455 5.84404 0.856934 11.9983 0.856934ZM11.8655 6.00322C11.8496 5.99993 11.8332 5.99892 11.817 6.00022L11.7935 6.00365L6.63175 7.14365C6.34353 7.20757 6.08404 7.36384 5.89274 7.58871C5.70145 7.81358 5.58879 8.09476 5.5719 8.38951L5.56975 8.46879V14.8284C5.56964 15.2937 5.68917 15.7513 5.91688 16.1572C6.14458 16.5631 6.47281 16.9036 6.87004 17.1461L6.96433 17.2009L11.1729 19.5401C11.3599 19.6441 11.5689 19.7022 11.7828 19.7096C11.9966 19.7169 12.2092 19.6734 12.4029 19.5825L17.0328 17.2009C17.4393 16.9746 17.7809 16.6476 18.0247 16.2513C18.2684 15.8549 18.4062 15.4026 18.4248 14.9376L18.4269 14.8284V8.46836C18.4271 8.17313 18.331 7.88589 18.153 7.65028C17.9751 7.41467 17.7252 7.24356 17.4412 7.16293L17.3649 7.14365L11.8655 6.00322Z" fill="#1A87FF"/>
<path fill-rule="evenodd" clip-rule="evenodd" d="M16.6315 10.2173C16.7877 10.3735 16.7877 10.6268 16.6315 10.783L12.278 15.1365C11.8484 15.5661 11.1519 15.5661 10.7223 15.1365L8.36878 12.783C8.21257 12.6268 8.21257 12.3735 8.36878 12.2173L9.21731 11.3688C9.37352 11.2126 9.62678 11.2126 9.78299 11.3688L11.5002 13.0859L15.2173 9.36878C15.3735 9.21257 15.6268 9.21257 15.783 9.36878L16.6315 10.2173Z" fill="#1A87FF"/>
</g>
<defs>
<clipPath id="clip0_17657_185966">
<rect width="24" height="24" fill="white"/>
</clipPath>
</defs>
</svg>
